<mxfile host="app.diagrams.net" modified="2022-10-10T17:16:56.250Z" agent="5.0 (Windows NT 10.0; Win64; x64) AppleWebKit/537.36 (KHTML, like Gecko) Chrome/106.0.0.0 Safari/537.36" etag="dla4xg_koEG02S38Zb45" version="20.4.0" type="github">
  <diagram id="twtDGOkDDeWTXfJo2WEe" name="Pagina-1">
    <mxGraphModel dx="2048" dy="1808" grid="1" gridSize="10" guides="1" tooltips="1" connect="1" arrows="1" fold="1" page="1" pageScale="1" pageWidth="827" pageHeight="1169" math="0" shadow="0">
      <root>
        <mxCell id="0" />
        <mxCell id="1" parent="0" />
        <mxCell id="zHori5KoMAhFE08cjZL3-5" style="rounded=0;orthogonalLoop=1;jettySize=auto;html=1;exitX=1;exitY=0.25;exitDx=0;exitDy=0;entryX=0;entryY=0.5;entryDx=0;entryDy=0;endArrow=none;endFill=0;" edge="1" parent="1" source="zHori5KoMAhFE08cjZL3-1" target="zHori5KoMAhFE08cjZL3-2">
          <mxGeometry relative="1" as="geometry" />
        </mxCell>
        <mxCell id="zHori5KoMAhFE08cjZL3-6" style="edgeStyle=orthogonalEdgeStyle;rounded=0;orthogonalLoop=1;jettySize=auto;html=1;exitX=1;exitY=0.5;exitDx=0;exitDy=0;endArrow=none;endFill=0;" edge="1" parent="1" source="zHori5KoMAhFE08cjZL3-1" target="zHori5KoMAhFE08cjZL3-3">
          <mxGeometry relative="1" as="geometry" />
        </mxCell>
        <mxCell id="zHori5KoMAhFE08cjZL3-7" style="rounded=0;orthogonalLoop=1;jettySize=auto;html=1;exitX=1;exitY=0.75;exitDx=0;exitDy=0;entryX=0;entryY=0.5;entryDx=0;entryDy=0;endArrow=none;endFill=0;" edge="1" parent="1" source="zHori5KoMAhFE08cjZL3-1" target="zHori5KoMAhFE08cjZL3-4">
          <mxGeometry relative="1" as="geometry" />
        </mxCell>
        <mxCell id="zHori5KoMAhFE08cjZL3-15" style="edgeStyle=none;rounded=0;orthogonalLoop=1;jettySize=auto;html=1;exitX=0.5;exitY=0;exitDx=0;exitDy=0;entryX=0.5;entryY=1;entryDx=0;entryDy=0;endArrow=classic;endFill=1;strokeWidth=1;" edge="1" parent="1" source="zHori5KoMAhFE08cjZL3-1" target="zHori5KoMAhFE08cjZL3-11">
          <mxGeometry relative="1" as="geometry" />
        </mxCell>
        <mxCell id="zHori5KoMAhFE08cjZL3-1" value="elettori" style="rounded=0;whiteSpace=wrap;html=1;" vertex="1" parent="1">
          <mxGeometry x="330" y="280" width="120" height="60" as="geometry" />
        </mxCell>
        <mxCell id="zHori5KoMAhFE08cjZL3-2" value="nome" style="ellipse;whiteSpace=wrap;html=1;" vertex="1" parent="1">
          <mxGeometry x="510" y="180" width="120" height="80" as="geometry" />
        </mxCell>
        <mxCell id="zHori5KoMAhFE08cjZL3-3" value="&lt;u&gt;codice fiscale&lt;/u&gt;" style="ellipse;whiteSpace=wrap;html=1;" vertex="1" parent="1">
          <mxGeometry x="510" y="270" width="120" height="80" as="geometry" />
        </mxCell>
        <mxCell id="zHori5KoMAhFE08cjZL3-4" value="regione di appartenenza" style="ellipse;whiteSpace=wrap;html=1;" vertex="1" parent="1">
          <mxGeometry x="510" y="370" width="120" height="80" as="geometry" />
        </mxCell>
        <mxCell id="zHori5KoMAhFE08cjZL3-8" value="partiti politici" style="rounded=0;whiteSpace=wrap;html=1;" vertex="1" parent="1">
          <mxGeometry x="330" y="-30" width="120" height="60" as="geometry" />
        </mxCell>
        <mxCell id="zHori5KoMAhFE08cjZL3-9" value="&lt;u&gt;nome&lt;/u&gt;" style="ellipse;whiteSpace=wrap;html=1;" vertex="1" parent="1">
          <mxGeometry x="510" y="-90" width="120" height="80" as="geometry" />
        </mxCell>
        <mxCell id="zHori5KoMAhFE08cjZL3-10" value="anno di fondazione" style="ellipse;whiteSpace=wrap;html=1;" vertex="1" parent="1">
          <mxGeometry x="510" width="120" height="80" as="geometry" />
        </mxCell>
        <mxCell id="zHori5KoMAhFE08cjZL3-16" style="edgeStyle=none;rounded=0;orthogonalLoop=1;jettySize=auto;html=1;exitX=0.5;exitY=0;exitDx=0;exitDy=0;entryX=0.5;entryY=1;entryDx=0;entryDy=0;strokeWidth=1;endArrow=none;endFill=0;" edge="1" parent="1" source="zHori5KoMAhFE08cjZL3-11" target="zHori5KoMAhFE08cjZL3-8">
          <mxGeometry relative="1" as="geometry" />
        </mxCell>
        <mxCell id="zHori5KoMAhFE08cjZL3-11" value="Ã©&lt;br&gt;tesserato" style="rhombus;whiteSpace=wrap;html=1;" vertex="1" parent="1">
          <mxGeometry x="350" y="120" width="80" height="80" as="geometry" />
        </mxCell>
        <mxCell id="zHori5KoMAhFE08cjZL3-12" value="" style="endArrow=none;html=1;rounded=0;exitX=1;exitY=0.25;exitDx=0;exitDy=0;entryX=0;entryY=0.5;entryDx=0;entryDy=0;" edge="1" parent="1" source="zHori5KoMAhFE08cjZL3-8" target="zHori5KoMAhFE08cjZL3-9">
          <mxGeometry width="50" height="50" relative="1" as="geometry">
            <mxPoint x="470" y="200" as="sourcePoint" />
            <mxPoint x="520" y="150" as="targetPoint" />
          </mxGeometry>
        </mxCell>
        <mxCell id="zHori5KoMAhFE08cjZL3-13" value="" style="endArrow=none;html=1;rounded=0;exitX=1;exitY=0.75;exitDx=0;exitDy=0;entryX=0;entryY=0.5;entryDx=0;entryDy=0;" edge="1" parent="1" source="zHori5KoMAhFE08cjZL3-8" target="zHori5KoMAhFE08cjZL3-10">
          <mxGeometry width="50" height="50" relative="1" as="geometry">
            <mxPoint x="470" y="200" as="sourcePoint" />
            <mxPoint x="520" y="150" as="targetPoint" />
          </mxGeometry>
        </mxCell>
        <mxCell id="zHori5KoMAhFE08cjZL3-14" style="edgeStyle=none;rounded=0;orthogonalLoop=1;jettySize=auto;html=1;exitX=1;exitY=1;exitDx=0;exitDy=0;entryX=1;entryY=0.75;entryDx=0;entryDy=0;endArrow=none;endFill=0;" edge="1" parent="1" source="zHori5KoMAhFE08cjZL3-1" target="zHori5KoMAhFE08cjZL3-1">
          <mxGeometry relative="1" as="geometry" />
        </mxCell>
        <mxCell id="zHori5KoMAhFE08cjZL3-23" style="edgeStyle=none;rounded=0;orthogonalLoop=1;jettySize=auto;html=1;exitX=1;exitY=0.5;exitDx=0;exitDy=0;entryX=0;entryY=0.5;entryDx=0;entryDy=0;strokeWidth=1;endArrow=none;endFill=0;" edge="1" parent="1" source="zHori5KoMAhFE08cjZL3-17" target="zHori5KoMAhFE08cjZL3-22">
          <mxGeometry relative="1" as="geometry" />
        </mxCell>
        <mxCell id="zHori5KoMAhFE08cjZL3-17" value="card elettorale" style="rounded=0;whiteSpace=wrap;html=1;" vertex="1" parent="1">
          <mxGeometry x="-10" y="280" width="120" height="60" as="geometry" />
        </mxCell>
        <mxCell id="zHori5KoMAhFE08cjZL3-18" value="(0,N)" style="text;html=1;resizable=0;autosize=1;align=center;verticalAlign=middle;points=[];fillColor=none;strokeColor=none;rounded=0;" vertex="1" parent="1">
          <mxGeometry x="380" y="240" width="50" height="30" as="geometry" />
        </mxCell>
        <mxCell id="zHori5KoMAhFE08cjZL3-19" value="(1,N)" style="text;html=1;resizable=0;autosize=1;align=center;verticalAlign=middle;points=[];fillColor=none;strokeColor=none;rounded=0;" vertex="1" parent="1">
          <mxGeometry x="380" y="80" width="50" height="30" as="geometry" />
        </mxCell>
        <mxCell id="zHori5KoMAhFE08cjZL3-21" style="edgeStyle=none;rounded=0;orthogonalLoop=1;jettySize=auto;html=1;exitX=0;exitY=0.5;exitDx=0;exitDy=0;entryX=1;entryY=0.5;entryDx=0;entryDy=0;strokeWidth=1;endArrow=none;endFill=0;" edge="1" parent="1" source="zHori5KoMAhFE08cjZL3-20" target="zHori5KoMAhFE08cjZL3-11">
          <mxGeometry relative="1" as="geometry" />
        </mxCell>
        <mxCell id="zHori5KoMAhFE08cjZL3-20" value="data tesserazione" style="ellipse;whiteSpace=wrap;html=1;" vertex="1" parent="1">
          <mxGeometry x="510" y="90" width="120" height="80" as="geometry" />
        </mxCell>
        <mxCell id="zHori5KoMAhFE08cjZL3-24" style="edgeStyle=none;rounded=0;orthogonalLoop=1;jettySize=auto;html=1;exitX=1;exitY=0.5;exitDx=0;exitDy=0;entryX=0;entryY=0.5;entryDx=0;entryDy=0;strokeWidth=1;endArrow=none;endFill=0;" edge="1" parent="1" source="zHori5KoMAhFE08cjZL3-22" target="zHori5KoMAhFE08cjZL3-1">
          <mxGeometry relative="1" as="geometry" />
        </mxCell>
        <mxCell id="zHori5KoMAhFE08cjZL3-22" value="possiede" style="rhombus;whiteSpace=wrap;html=1;" vertex="1" parent="1">
          <mxGeometry x="180" y="270" width="80" height="80" as="geometry" />
        </mxCell>
        <mxCell id="zHori5KoMAhFE08cjZL3-25" value="(1,1)" style="text;html=1;resizable=0;autosize=1;align=center;verticalAlign=middle;points=[];fillColor=none;strokeColor=none;rounded=0;" vertex="1" parent="1">
          <mxGeometry x="125" y="285" width="50" height="30" as="geometry" />
        </mxCell>
        <mxCell id="zHori5KoMAhFE08cjZL3-26" value="(0,N)" style="text;html=1;resizable=0;autosize=1;align=center;verticalAlign=middle;points=[];fillColor=none;strokeColor=none;rounded=0;" vertex="1" parent="1">
          <mxGeometry x="265" y="285" width="50" height="30" as="geometry" />
        </mxCell>
        <mxCell id="zHori5KoMAhFE08cjZL3-27" value="numero sequenziale" style="ellipse;whiteSpace=wrap;html=1;" vertex="1" parent="1">
          <mxGeometry x="-30" y="180" width="120" height="80" as="geometry" />
        </mxCell>
      </root>
    </mxGraphModel>
  </diagram>
</mxfile>
